<?xml version="1.0" encoding="utf-8"?>
<!-- Generator: Adobe Illustrator 25.3.1, SVG Export Plug-In . SVG Version: 6.00 Build 0)  -->
<!DOCTYPE svg PUBLIC "-//W3C//DTD SVG 1.1//EN" "http://www.w3.org/Graphics/SVG/1.1/DTD/svg11.dtd" [
	<!ENTITY ns_extend "http://ns.adobe.com/Extensibility/1.0/">
	<!ENTITY ns_ai "http://ns.adobe.com/AdobeIllustrator/10.0/">
	<!ENTITY ns_graphs "http://ns.adobe.com/Graphs/1.0/">
	<!ENTITY ns_vars "http://ns.adobe.com/Variables/1.0/">
	<!ENTITY ns_imrep "http://ns.adobe.com/ImageReplacement/1.0/">
	<!ENTITY ns_sfw "http://ns.adobe.com/SaveForWeb/1.0/">
	<!ENTITY ns_custom "http://ns.adobe.com/GenericCustomNamespace/1.0/">
	<!ENTITY ns_adobe_xpath "http://ns.adobe.com/XPath/1.0/">
]>
<svg version="1.1"
	 id="Layer_1" xmlns:x="&ns_extend;" xmlns:i="&ns_ai;" xmlns:graph="&ns_graphs;" mapsvg:geoviewbox="-178.199498 83.116658 -52.648425 18.959170" xmlns:mapsvg="https://mapsvg.com"
	 xmlns="http://www.w3.org/2000/svg" xmlns:xlink="http://www.w3.org/1999/xlink" x="0px" y="0px" viewBox="0 0 413.6 441.2"
	 style="enable-background:new 0 0 413.6 441.2;" xml:space="preserve">
<style type="text/css">
	.st0{fill:#2A1F55;stroke:#FFFFFF;stroke-miterlimit:10;}
	.st1{fill:#FFFFFF;}
	.st2{font-family:'MyriadPro-Regular';}
	.st3{font-size:10px;}
	.st4{fill:none;stroke:#FFFFFF;stroke-width:0.5;stroke-miterlimit:10;}
</style>
<metadata>
	<sfw  xmlns="&ns_sfw;">
		<slices></slices>
		<sliceSourceBounds  bottomLeftOrigin="true" height="399.8" width="350.6" x="367.2" y="127.7"></sliceSourceBounds>
	</sfw>
</metadata>
<path id="US-AZ" class="st0" d="M301.2,359.8v4.2v4.1v4.1v4.1v4.1v4.1v4v4v4v4v4v4v3.9v3.9v3.9v3.9h-2.1h-3.3h-3.3h-3.3h-3.3h-3.3
	l-4.5-1.6l-4.5-1.6l-4.5-1.6l-4.5-1.6l-4.5-1.6l-4.5-1.6l-4.5-1.6l-4.5-1.6l0.5-0.6l0.6-1.7v-0.1l0,0l1.3-0.1l0.6-0.4l0.4-0.8
	l0.1-0.8l-0.2-0.8l-0.6-0.6l-0.9-0.4l-0.5-1.1l-0.1-1.8l0.2-1l0.5-0.1l0.5-0.4l0.4-0.7l0.3-0.8l0.2-0.9v-1.1l-0.1-1.3l0.8-1.7l0.8-1
	l1.6-1.3l0.4-0.4v-0.3l0,0l-0.3-0.4l-1.4-0.9l-0.6-0.6v-0.6l0,0l-0.2-0.6l-1.5-2.3l-0.5-1.3v-1v-0.1l0.2-4.1l-0.5-1.4l-0.1-0.8
	l0.2-1v-0.6l-0.3-0.5l-0.1-1v-1.2l-0.4-0.8l-0.1-0.3l0.2-0.8l0.4-0.4l0.7-0.3l0.8-0.1l0.9,0.1l0.7,0.4l0.5,0.7l0.5,0.3h0.5l0.6-0.5
	l0.5-1.2l0.2-0.1v-5v-4.6h2.9h2.9h2.9h2.9h2.9h2.9h2.9h2.9h2.9h2.9h2.9h2.9h2.9h2.9h2.9L301.2,359.8z"/>
<path id="US-CA-S" class="st0" d="M204,384.3l17.1,0.7l0.1-11.6l17.3-0.1l0.7,0.6l2.4,2.3l2.4,2.3l2.4,2.3l2.6,2.4v1l0.5,1.3
	l1.5,2.3l0.2,0.6l0,0l0.1,0.6l0.6,0.6l1.4,0.9l0.3,0.4l0,0v0.3l-0.4,0.4l-1.6,1.3l-0.8,1l-0.8,1.7l0.1,1.3v1.1l-0.2,0.9l-0.3,0.8
	l-0.4,0.7l-0.5,0.4l-0.5,0.1l-0.2,1l0.1,1.8l0.5,1.1l0.9,0.4l0.6,0.6l0.2,0.8l-0.1,0.8l-0.4,0.8l-0.6,0.4l-1.3,0.1l0,0v0.1l-1.1,0.1
	l-2.7,0.2l-2.7,0.2l-2.7,0.2l-2.7,0.2l-2.7,0.2l-2.7,0.2l-2.7,0.2l-2.7,0.2v-0.1l-0.1-1.2l-0.4-0.4l-0.6,0.3l-0.3-1.6l0.1-0.8
	l-0.1-0.7l-0.5-1.8l-1.4-2.2l-3-2.7l-1.5-0.9l-1.2-1.2l-0.8-0.3l-1-0.1l-0.3,0.5l-1.1-0.4l0.2-1.3l-1.1-1.8l-0.9-0.2l-2.2,0.1
	l-2.9-1l-0.9-0.6l-0.3-1.1l-1.4-0.9L204,384.3z M213.7,401.3l0.5,0.8l-0.7-0.1h-0.7l-0.2-0.4l-0.2-0.6l-0.1-0.2l-0.5-0.1v-0.1
	l-0.1-0.3l0.1-0.2l1.5,0.7L213.7,401.3L213.7,401.3z M203.4,403.2H203l-0.6-0.1l-0.3-0.6h0.5l0.4,0.1L203.4,403.2L203.4,403.2
	L203.4,403.2z M213.6,407.6l-0.5,0.1l-0.6-0.2l-0.5-1.1l-0.6-0.8l0.3-0.2l0.5,0.8l1.2,1.2L213.6,407.6L213.6,407.6z"/>
<path id="US-CA-N" class="st0" d="M203.7,390.6l-1.8-0.9l-1,0.2l-1.3-0.1l-1.9-0.7l-1.1-0.1l-2.1,0.2l-0.8-0.1l-0.7-0.8l-0.8-0.4
	l0.2-1l-0.1-0.9l0.1-0.7l-0.4-1.6l0.3-1.5l-0.2-0.5l-0.5-0.4l-1.4-0.6l-0.3-0.8l0.2-1l-0.4-0.7l-1.2-0.6l-1.1-1.5l-1.4-0.8l-0.6-1.3
	l-0.8-0.8l-0.3-0.7l-1.9-2.6l-2-2.1l-0.3-1.2L180,365l0.8-1l0.4-0.9v-0.8l-0.1-0.6l-0.7-1l-2.7-0.6l-2.2-2.5l-0.1-2l-0.8-2v-1.3
	l-0.1-1.4l0.7-0.3l0.6,0.1l-0.1,0.6l0.2,1l0.7,0.8l0.7,0.3l0.6,0.7l0.4,0.2h0.5l-0.3-0.5l-0.3-0.3l-0.3-1l-0.6-1.3l-0.7-0.7
	l-0.3-1.3l-0.3-0.3l-0.2-0.5l0.7-0.6l0.9-0.4l1.2-0.1l3.5,0.2l0.7-0.3l0.6,0.1h0.5L183,347l-0.5,0.1l-0.6-0.1l-1.2,0.1l-0.5-0.1
	l-0.6-0.4h-0.4l-1.2,0.7l-0.5-0.1l-1.2-0.8l-0.5-0.1l-0.8,0.4l-0.1,1.8l0.3,1.4l-0.5,0.1l-0.6-0.6l-0.9-0.3l-0.8-0.5l-1.1-1
	l-0.6-0.3l-0.6,0.8v-0.4l0.3-0.9l-0.1-1.6l1,1.2l-0.3-0.9l-0.7-1l-0.6-0.3l-0.7-1.7l-1.6-1l-1.3-1.7l-2.6-2.8l-0.2-2.5l-1-3.1
	l0.4-1.8v-1.3l-0.5-1.9l-0.5-1l-2.1-2.9l-2-1.9l-0.3-1.5l-0.1-1.5l0.4-1.3l0.4-1.4l0.3-0.4l0.1,0.2l-0.1,0.3l0.3,0.1l0.1-0.6
	l0.2-0.3h-0.3V314l0.2-0.4l0.6-1.8l-0.1-2.3l0.7-2.8v-0.9l-0.4-2l-0.4-1.2l-0.8-0.9l0.3-1.3v-1.2l-0.2-0.2h2.6h2.5h2.5h2.5h2.5h2.5
	h2.5h2.5h2.5h2.5h2.5h2.5h2.5h2.5h2.5h2.5l0,0v2.4v2.4v2.3v2.3v2.3v2.3v2.3v2.3v2.3v2.3v2.3v2.3v2.3v2.3v2.3v2.3l2.2,2l2.2,2l2.2,2
	l2.2,2l2.2,1.9l2.2,2l2.2,1.9l2.2,1.9l1.7,1.6l1.7,1.6l1.7,1.6l1.7,1.6l1.7,1.6l1.7,1.6l1.7,1.6l1.7,1.6l2.4,2.3l2.4,2.3l2.4,2.3
	l1.7,1.7l-17.3,0.1l-0.1,11.6l-17.1-0.7L203.7,390.6z M199.2,393.5l1.9,0.6l1-0.3l0.2,0.3l-0.1,0.2l-2.3,0.4l-0.7-0.3l-0.1-0.4
	l-0.2-0.4L199.2,393.5z M195.2,394.1h-0.5l-0.8-0.1l0.3-0.3l0.4-0.2l0.1,0.1L195.2,394.1L195.2,394.1z M197.7,395.3l-0.7,0.2
	l-0.5-0.2l-0.8-1.1l1.7-0.1l0.7,0.5l0.1,0.1L197.7,395.3L197.7,395.3z M203.4,403.2H203l-0.6-0.1l-0.3-0.6h0.5l0.4,0.1L203.4,403.2
	L203.4,403.2L203.4,403.2z"/>
<path id="US-CO" class="st0" d="M367.3,323.9v2.3v2.3v2.3v2.3v2.3v2.3v2.3v2.3v2.2v2.2v2.2v2.2v2.2v2.2v2.2v2.2H365h-2.3h-2.3h-2.3
	h-3.6h-3.6h-3.5h-3.6h-3.6h-3.5h-3.6h-3.6H326h-3.6h-3.6h-3.6h-3.5h-3.4h-3.6h-3.5V357v-3v-3v-3v-3v-3v-3v-3v-3v-3v-3.1v-3v-3.1
	v-3.1v-3.1v-3.1h3h3h3h3h3h3h3h3h3h3h3h3h3h3h3h3h2.3h2.3h2.3h2.3h2.3h2.3h2.3h2.3v1.6v1.5v1.5v1.5v1.5v1.5v1.5L367.3,323.9z"/>
<path id="US-ID" class="st0" d="M282.4,266.9v2.1v2v2v2v2v2v2v2v2v2v2v2v2v2v2v2h-1.8h-1.8H277h-1.7h-1.8h-1.8h-1.8h-1.6h-1.8h-1.8
	h-1.8h-1.8h-1.8h-1.8h-1.8h-1.8h-3.5h-3.5h-3.5h-3.5h-3.5h-3.5h-3.5h-3.5v-2.8v-2.8v-2.8v-2.8v-2.9V282v-2.9v-3.2v-0.1l0.6-2l0.1-1
	l-0.2-0.5l0.1-0.5l0.4-0.5v-0.6l-0.4-0.6l-0.7-0.4l-1-0.2l-0.5-0.7v-1.2l0.8-1.9l1.6-2.5l0.9-1.8l0.2-1.1l1-2.4l1.8-3.8l0.7-2.5
	l-0.4-1.1l-0.9-1l-1.4-1l-1-1.2l-0.3-0.6L227,246l-0.2-0.9l0.2-0.5l-0.2-0.9l-0.6-1.3l-0.3-0.9l0.1-0.3l0.1-0.1v-2.2v-2.2v-2.2v-2.2
	v-2.2v-2.2v-2.2v-2.2v-2.2v-2.2v-2.3v-2.3v-2.3v-2.3v-2.3v-2.3h3h4h2.3v3.5v3.5v3.5v3.5l1,1.4l0.8,0.9l0.5,0.9l0.7,1l0.1,0.4l0.3,1
	l-0.2,0.8l0.4,0.8l-0.1,0.4l-0.3,0.2l-0.1,0.1v0.1l0.1,0.1l1,0.7l1,1l1.3,0.7l0.4,0.4l1.7,2l0.9,1.3l0.9,0.9l0.5,1.1l1,0.9l0.2,0.5
	l0.1,0.1h0.1l0.6-0.2l0.2,0.1l0.3,0.4l0.1,0.6l0.2,0.2l0.4,0.1h0.4l1.3-0.3h0.3l0.1,0.1l0.1,0.3v0.5l-0.1,0.7l-0.4,0.7l0.1,0.6
	l-0.3,1.5l-0.3,1v1l-0.4,0.6l0.2,0.7l-0.1,1l0.1,0.3l0.5,0.5l0.2,1.2l-0.1,0.2l-0.8,0.5l-0.3,0.3l-0.1,0.5l0.4,1.3l-0.3,0.7v0.6
	l0.1,0.2l0.8,0.3l0.9,0.7l0.3,0.2h0.2l0.4-0.2l0.4-0.5l0.9-0.5l1-1.1v-0.3l0.1-0.2h0.1l0.3,0.2l0.7,0.6l0.6,0.4l0.1,0.1v0.2v0.6
	l0.3,0.5l0.1,0.8l0.3,0.8l0.2,1l0.8,1.3l0.5,0.9l0.5,0.4l0.3,0.5l0.2,0.6l0.1,0.5l-0.3,0.8l0.1,0.3l0.3,0.4l0.9,0.9l0.2,0.1l0.8-0.1
	l0.4,0.1l0.4,0.4l0.4,0.7l0.3,0.7l0.1,0.8l0.5,0.9l0.1,0.8l0.3,0.3l0.6,0.5l0.5,0.3h0.2l0.2-0.1v-0.4l0.2-0.3l0.7-0.5h0.6l2.4,0.4
	h0.2l0.1-0.1l0.4-0.7l0.3-0.3l0.5-0.1l1.5,0.2l1.7-0.1l0.9,0.2l1.3-0.3l1.5,0.2l0.2-0.1v-0.2l-0.1-0.3v-0.5l0.3-0.6l0.1-0.5l0.3-0.3
	l0.4-0.2h0.3l0.3,0.3l0.4,0.5l0.6,1.3l0.3,0.5l0.4,0.4L282.4,266.9z"/>
<path id="US-MT" class="st0" d="M348.6,247.6v3.1v3.1v3.1v3.1l0,0l0,0l0,0l0,0h-0.1h-0.1h-0.1h-0.1h-1.9h-2h-2.1h-2.1H338h-2.1h-2.1
	h-2.1h-2.1h-2.1h-2.1h-2.1h-2.1h-2.1H317h-2.1h-1.6h-2.1h-2.1H307h-2.1h-2.1h-2.1h-2.1h-2.1h-2.1h-2.1h-2.1h-2.1H286h-2.1h-2.1v1.7
	v1.7v1.7v1.7l-0.6-0.4l-0.4-0.4l-0.3-0.5l-0.6-1.3l-0.4-0.5l-0.3-0.3h-0.3l-0.4,0.2l-0.3,0.3l-0.1,0.5l-0.3,0.6v0.5l0.1,0.3v0.1
	l-0.2,0.1l-1.5-0.2l-1.3,0.3l-0.9-0.2l-1.7,0.1l-1.5-0.2l-0.5,0.1l-0.3,0.3l-0.4,0.7l-0.1,0.1h-0.2l-2.4-0.4h-0.6l-0.7,0.5l-0.2,0.3
	v0.4l-0.2,0.1H265l-0.5-0.3l-0.6-0.5l-0.3-0.3l-0.1-0.8l-0.5-0.9l-0.1-0.8l-0.3-0.7l-0.4-0.7l-0.4-0.4l-0.4-0.1l-0.8,0.1l-0.2-0.1
	l-0.9-0.9l-0.3-0.4l-0.1-0.3l0.3-0.9l-0.1-0.5l-0.2-0.6l-0.3-0.5l-0.5-0.4l-0.5-0.9l-0.8-1.3l-0.2-1l-0.3-0.8l-0.1-0.8l-0.3-0.5V252
	v-0.2l-0.1-0.1l-0.6-0.4l-0.7-0.6l-0.3-0.2h-0.1l-0.1,0.2v0.3l-1,1.1l-0.9,0.5l-0.4,0.5l-0.4,0.2h-0.2l-0.3-0.2l-0.9-0.7l-0.8-0.3
	l-0.1-0.2v-0.6l0.3-0.7l-0.4-1.3l0.1-0.5l0.3-0.3l0.8-0.5l0.1-0.2l-0.2-1.2l-0.5-0.5l-0.1-0.3l0.1-1l-0.2-0.7l0.4-0.6v-1l0.3-1
	l0.3-1.5l-0.1-0.6l0.4-0.7l0.1-0.7v-0.5l-0.1-0.3l-0.1-0.1h-0.3l-1.3,0.3h-0.4l-0.4-0.1l-0.2-0.2l-0.1-0.6l-0.3-0.4l-0.2-0.1
	l-0.6,0.2h-0.1l-0.1-0.1l-0.2-0.5l-1-0.9l-0.5-1.1l-0.9-0.9l-0.9-1.3l-1.7-2l-0.4-0.4l-1.3-0.7l-1-1l-1-0.7l-0.1-0.1v-0.1l0.1-0.1
	l0.3-0.2l0.1-0.4l-0.4-0.8l0.2-0.8l-0.3-1l-0.1-0.3l-0.7-1l-0.5-0.9l-0.8-0.9l-1-1.4v-3.5v-3.5v-3.5v-3.5h1.7h4h4h4h4h0.9h3.1h4h4h4
	h4h4h4h4h4h3h1h4h4h4h4h4h4h4h4h4h4h4h4h4h3v2.7v2.7v2.7v2.7v2.7v2.7v2.7v2.6v2.7v2.6v2.6v2.6v2.6v2.6v2.6L348.6,247.6z"/>
<path id="US-NM" class="st0" d="M358.1,365.7h-0.4v3.3v3.3v3.3v3.2v3.2v3.2v3.2v3.2v3.2v3.2v3.2v3.2v3.1v3.1v3.1v3.1h-2.1h-2.3h-2.1
	h-2.1H347h-2.1h-2.1h-2.1h-2.1h-2.1h-2.1h-2.1h-2.1h-2.1H326h-2.1l0,0l1,2l0,0l1.1,0.6h-0.1h-2.1h-2.1h-2.1h-2.1h-2.1h-2.1h-2.1
	h-2.1v1.2v1.2v1.2v1.2h-3.3h-3.3h-1.2v-3.9v-3.9v-3.9v-3.9v-4v-4v-4v-4v-4v-4v-4.1v-4.1v-4.1v-4.1v-4.1v-4.2h3.5h3.6h3.6h3.5h3.6
	h3.6h3.6h3.5h3.6h3.6h3.5h3.6h3.6h3.5h3.6h3.6v1.5v1.5v1.5L358.1,365.7z"/>
<path id="US-NV" class="st0" d="M254.2,359.8v4.6v5l-0.2,0.1l-0.5,1.2l-0.6,0.5h-0.5l-0.5-0.3l-0.5-0.7l-0.7-0.4l-0.9-0.1l-0.8,0.1
	l-0.7,0.3l-0.4,0.4l-0.2,0.8l0.1,0.3l0.4,0.8v1.2l0.1,1l0.3,0.5v0.6l-0.2,1l0.1,0.8l0.5,1.4l-0.2,4.1v0.1l-2.6-2.4l-2.4-2.3l-3-2.9
	l-2.4-2.3l-1.8-1.7l-2.4-2.3l-2.4-2.3l-2.4-2.3l-1.7-1.6l-1.7-1.6l-1.7-1.6l-1.7-1.6l-1.7-1.6l-1.7-1.6l-1.7-1.6l-1.7-1.6l-2.2-1.9
	l-2.2-1.9l-2.2-2l-2.2-1.9l-2.2-2l-2.2-2l-2.2-2l-2.2-2v-2.3v-2.3v-2.3v-2.3v-2.3v-2.3V320v-2.3v-2.3v-2.3v-2.3v-2.3v-2.3v-2.3v-2.4
	v-2.4h3.5h3.5h3.5h3.5h3.5h3.5h3.5h3.5h3.5h3.5h3.5h3.5h3.5h3.5h3.5h3.5v2v2v2v1.9v2v1.9v1.9v1.9v1.9v1.9v1.9v1.9v1.9v1.9v1.9v1.9
	v1.9v1.9v1.9v1.9v1.9v1.9v1.9v1.9v1.9v1.9v1.8v1.8v1.8v1.8v1.8L254.2,359.8z"/>
<path id="US-OR" class="st0" d="M167.8,244.8l0.9-0.3l0.7,0.3l0.9,0.6l0.9,1.8l0.9,3.1l0.2,1l0.7,0.6h0.8l3.4,0.5h0.5l0,0l0.6-0.1
	l1.9-1.2l2.1-0.4l2.5,0.1l1.5,0.3l0.5,0.6l1.3,0.1l3.1-0.7l3.4-0.5l1.8-0.5l2.1-1l4.8-1.3l2.4-0.1l1.2-0.5l0.3-0.3h0.2h2.5h2.5h2.5
	h2.5h2.5h2.5h2.5h2.3l0.3,0.6l1,1.2l1.4,1l0.9,1l0.4,1.1l-0.7,2.5l-1.8,3.8l-1,2.4l-0.2,1.1l-0.9,1.8l-1.6,2.5l-0.8,1.9v1.2l0.5,0.7
	l1,0.2l0.7,0.4l0.4,0.6v0.6l-0.4,0.5l-0.1,0.5l0.2,0.5l-0.1,1l-0.6,2v0.1v3.2v2.9v2.9v2.9v2.8v2.8v2.8v2.8h-3.5h-3.5h-3.5h-3.5h-3.5
	h-3.5h-3.5h-3.5h-2.5h-2.5h-2.5h-2.5h-2.5h-2.5h-2.5h-2h-2.5h-2.5h-2.5h-2.5h-2.5h-2.5h-2.5h-2.6l-1.2-1.5l-0.5-2.3l-0.1-1l0.1-2.6
	l-0.4-1.1l-0.9-1.8l0.4-1.6l0.4-1l1-4.2l0.2-0.3h0.4l0.7-0.7l-0.3-0.2l-0.5,0.3l0.5-1.7l0.5-1.5l0.3-0.5l0.2-4.7l0.3-3.6l0.5-1.2
	l-0.2-1.2l0.2-1.7l-0.1-1.7l1-8.3l-0.1-1l0.3-1.3l-0.3-3.6l0.1-4l-0.3-0.5l-0.1-0.6l0.3-0.1l0.5,0.6h2.2l1.4-0.5l0.5,0.2l0.6,0.7
	l0.8,0.1L167.8,244.8z"/>
<path id="US-UT" class="st0" d="M282.4,299v1.6v1.6v1.6v1.6v1.6v1.6v1.6v1.6h2.3h2.4h2.4h2.4h2.4h2.3h2.4h2.4v3.1v3.1v3.1v3.1v3v3.1
	v3v3v3v3v3v3v3v3v3v2.9h-3.1h-3h-2.9h-2.9h-2.9h-2.9h-2.9h-2.9H275h-2.9h-2.9h-2.9h-2.9h-2.9h-2.9h-2.9v-1.8v-1.8v-1.8V353v-1.8
	v-1.8v-1.9v-1.9v-1.9v-1.9v-1.9V338v-1.9v-1.9v-1.9v-1.9v-1.9v-1.9v-1.9v-1.9v-1.9V319v-1.9v-1.9v-1.9v-1.9v-1.9v-2v-1.9v-2v-2v-2
	h1.8h1.8h1.8h1.8h1.8h1.8h1.8h1.8h1.8h1.8h1.8h1.8h1.8h1.8h1.8L282.4,299z"/>
<path id="US-WA" class="st0" d="M227.3,246.8H225h-2.5H220h-2.5H215h-2.5H210h-2.5h-0.2l-0.3,0.3l-1.2,0.5l-2.4,0.2l-4.8,1.3l-2.1,1
	l-1.8,0.5l-3.4,0.5l-3.1,0.7l-1.3-0.1l-0.5-0.6l-1.5-0.3l-2.5-0.1l-2.1,0.4l-1.9,1.2l-0.6,0.1l0,0h-0.5l-3.4-0.5h-0.8l-0.7-0.6
	l-0.2-1l-0.9-3.1l-0.9-1.9l-0.9-0.6l-0.7-0.3l-0.9,0.3l-0.3-0.2h-0.5l-1-0.7l-0.6-0.7h-1.8l-0.4-0.4l-2,0.4l-0.6-0.5l-1.1,0.3
	l0.3-1.3V240v-1.6l0.3,1.1l0.7,1.2l0.3-1.4l0.2-1.7l-0.6-0.7l-1.1-0.5l-0.4-1.6l2.5-1.4l-1.4-0.3l-0.5-0.6l-0.6-0.1v0.5l-0.2,0.6
	l-0.2-0.8l-0.1-1l-0.3-1.7l-1-2.7l-0.6-3.5l-0.8-1.8l-1.5-1.7l-0.4-1l-0.4-2.5l0.2-1.9l-0.3-1.3l0.7,0.1l1.9,1l2.4,0.8l0.7,0.6
	l1.2,0.4l6.4,0.7l0.4-0.1l0.8-0.4h0.3l0.9,1l0.5,0.1h0.6l0.5-0.2l0.8-0.7l0.1,0.3v0.6l0.3,0.9l0.6,1.1l0.2,0.7l-1.2,2h-0.2v-0.7
	l-0.2-0.1l-2.2,3.4l-0.8,1.6l-0.1,0.7v0.4l0.3,0.1l0.7-0.2l1-0.7v-0.1l-1,0.2h-0.5l0.1-0.8l0.1-0.4l0.6-1.1l0.7-0.7l0.9-0.7l0.5-0.6
	l0.4-0.9l1-1l0.2-0.3v-0.8l0.1-0.2l0.5,0.1l0.2,1.5l-0.1,0.7l-0.9,0.8L173,223l0.2,1.1l-0.1,0.1l-0.3-0.1l-0.1,0.1l0.8,1.2l0.3,0.9
	v0.8l-0.2,1.5l-0.3,0.3l-0.4-0.1l-0.6-0.5l-0.1,0.2l-0.4,1.2l-0.2-0.1l-0.3-1.4l-0.2-0.1l-0.9,0.6l-0.3,0.6l-0.3,1l-0.4,0.5l1.1,0.1
	l1-0.2l0.8,0.5h0.3l0.7-0.5l0.2-0.3l0.6-1.5l0.3-0.3h0.4l0.4-0.2l0.6-0.8v-0.3l-0.2-1.9l0.1-1l-0.1-0.3l-0.3-0.4v-0.3l0.2-0.5v-0.5
	l-0.2-0.5l0.1-0.5l0.6-1.1l0.1-0.5l0.7-1.1l-0.2-0.4l-0.5-0.5l-0.3-0.5l-0.3-0.7l-0.3-0.3l-0.1,0.1l0.4,1.2l-0.1,0.1l-0.9-0.6
	l-0.2-0.4l-0.1-0.6l0.1-0.4l0.5-0.4l0.6-0.1v-0.4l-0.8-1.1l-0.5-0.5l-0.4-0.3l-0.5-0.1l-0.2-0.2l-0.1-0.3l0.1-0.3l0.3-0.1l0.8,0.1
	l0.4-0.3v-0.5l-0.1-0.3v-1.6l-0.3-1.3l-0.2-0.2h-0.2l-0.2,0.2h-0.5l-0.3-0.4l-0.3-0.8l-0.6-2h1h4h4h4h4h4h4h4h4h4h4h4h4h4h1v2.3v2.3
	v2.3v2.3v2.3v2.3v2.3v2.2v2.2v2.2v2.2v2.2v2.2v2.2v2.2v2.2l-0.1,0.1l-0.1,0.3l0.3,0.9l0.6,1.3l0.2,0.9l-0.2,0.5l0.2,0.9L227.3,246.8
	L227.3,246.8z M171.9,209.8l0.1,0.3l-0.4,0.3h-0.3l-0.4-0.5l-0.2-0.1l0.2,0.7v0.3l-0.9-0.5l-0.2-0.4l0.3-0.4l0.5-0.4h0.2
	L171.9,209.8L171.9,209.8z M169.8,212.3l0.3,0.5l-1-0.3l-0.4-0.3l-0.1-0.3l-0.3-0.9l0.1-0.3l0.5-0.1l0.8,1.1L169.8,212.3
	L169.8,212.3z M171.6,213.3l-0.2,0.1l-0.5-0.2l-0.3-0.3l-0.1-0.4l0.2-0.8l0.3-0.2h0.2l0.1,0.7l0.5,0.7L171.6,213.3z M173.9,217.1
	l0.5,1.8l0.2-0.8l1.3,1.3v0.6l-0.2,0.2l-0.3,0.1l-0.3-0.2l-0.2-0.5l-0.3-0.2l-0.6-0.2l-0.3-0.5l-0.1-0.4v-1l-0.2-0.3l-0.3-0.1
	l-0.3-0.3l-0.5-0.7l-0.1-0.2l0.2-0.6l0.5-1l0.4-0.5h0.2l0.3,0.3l0.3,0.5l-0.1,0.4l-1.4,0.8v0.2l0.7,0.2l0.3,0.2L173.9,217.1
	L173.9,217.1z M174.6,225v0.3l-0.5-0.3l-0.2-0.3V224l0.1-0.4l0.1-0.1l0.3,0.2l0.1,0.1L174.6,225L174.6,225z M175.6,227.8v0.3
	l-0.4,0.3l-0.2-0.1v-0.4l-0.1-0.1l-0.4,0.5v-0.9l0.2-0.9h0.2l0.3,0.6L175.6,227.8L175.6,227.8z M171.3,230.4l-0.1,0.3h-0.1l-0.3-0.5
	v-0.4l0.3-0.3l0.3,0.8L171.3,230.4L171.3,230.4z"/>
<path id="US-WY" class="st0" d="M348.5,286.3v3.2v3.2v3.2v3.2v3.2v3.1v3.1v3.1h-3h-3h-3h-3h-3h-3h-3h-3h-3h-3h-3h-3h-3h-3h-3h-3
	h-2.4h-2.4h-2.3H291h-2.4h-2.4h-2.4h-2.3V310v-1.6v-1.6v-1.6v-1.6V302v-1.6v-1.6v-2v-2v-2v-2v-2v-2v-2v-2v-2v-2v-2v-2v-2v-2v-2v-2.1
	V265v-1.6v-1.7V260h2.1h2.1h2.1h2.1h2.1h2.1h2.1h2.1h2.1h2.1h2.1h2.1h2.1h2.1h2.1h2.1h2.1h2.1h2.1h2.1h2.1h2.1h2.1h2.1h2.1h2.1h2.1
	h2.1h2.1h2.1h2.1h2.1v3.3v3.3v3.3v3.3v3.3v3.2v3.2L348.5,286.3z"/>
<path id="CA-AB" class="st0" d="M291.7,205.3h-3h-4h-4h-4h-4h-4h-4h-4h-4h-3.1l-0.3-1.3l-0.1-0.3l-0.7-0.8l-0.3-0.8l-0.2-0.3
	l-1.5-0.6l-0.2-0.3l-0.1-0.3l-0.4-0.3l-0.5-0.8l-0.8-0.9l-0.2-0.4v-0.5l0.1-1v-0.4l-0.2-0.1l-0.7-0.1l-0.3-0.2l-0.2-0.3v-0.2
	l0.5-0.6l0.4-1.3v-1l-0.4-2l0.1-0.3l0.3-0.4v-0.5l-0.2-0.6l-0.4-1l-0.7-3.4l-1.9-2.7l-0.5-0.5l-0.4-0.1h-0.3l-0.6,0.4l-0.2,0.1
	l-0.1-0.1l-0.4-0.5l-0.4-0.6l-0.1-0.1V180l0.1-0.3l-0.1-0.3l-0.2-0.3l-0.1-0.1h-0.1h-0.1h-0.1l-0.1-0.1l-0.3-0.4l-1.9-1.5l-0.1-0.2
	l0.5-0.6l-0.1-0.4l-0.2-0.4l-1.6-1.6l-1.4-0.5l-0.5-0.4l-0.1-0.3l-0.2-1l-0.1-0.2l-0.1-0.1l-0.8-0.4l-0.4-0.5L233,170l-0.3-0.4
	l-0.3-1.5l-0.6-0.7l-0.3-0.7l-0.4-0.4l-0.4-0.6l-0.6-0.5l-0.6-1.6l-0.4-0.5l-0.4-0.1l-0.4,0.2l-0.3,0.3l-0.2,0.3l-0.1,0.5l-0.1,0.1
	h-0.8l-0.2-0.3l-0.9-2.3l-0.4-0.6l-1.6-1.8l-0.7-1.7h-0.3l-0.3,0.2h-1.9l-1.5-1l-0.3-0.4l-0.3-0.6l0.8-1.2v-0.5L219,154l-1.2-0.6
	l-1.1-0.8l-0.2,0.3l-0.1,0.6l-0.2,0.2l-1.2,0.4h-0.3l-0.2-0.3v-0.5l0.2-0.6l-0.4-0.5l-0.2-0.7l-0.6-0.9l0.3-0.8l-0.1-0.5l-0.3-0.5
	l-0.5-0.7l-0.1-0.8l-0.7-0.9l-1-0.1l-0.2-0.2l-0.4-1l-0.1-0.8l-0.5-0.5l-0.3-0.1l-0.1-0.9l-0.3-0.5l-1-0.9l-0.7-0.4l-0.2,0.5l-0.1,1
	l-0.2-0.1l-2-1l-0.4-0.5l-0.9-1.7l-0.3-0.1l-1.5-0.2l-0.5,0.1l-0.3-0.1l-0.4-0.5l-0.9-1.4l-0.3-0.3l-0.4-0.1v-0.8l-0.2-0.6V135h0.3
	h1.3l0.1-0.3l-0.7-1l-0.7-0.1l-0.2-0.2l-0.1-0.7l-0.5-0.4l-0.3-0.7v-6.1v-6.2v-6.2v-6.3v-6.4V94v-6.5v-6.6v-6.6v-6.7v-6.8v-6.9V47
	v-7v-7.1v-7.2h5.9h5.9h5.9h5.9h5.9h5.9h5.9h5.9h5.9h5.9h5.9h5.9h5.9h5.9h5.9h5.9v6.4v6.3v6.3v6.2v6.2v6.1v6v6v5.9V87v5.8v5.8v5.7
	v5.7v5.6v5.6v5.5v5.5v5.4v5.4v5.3v5.3v5.3v5.2v5.2v5.1v5.1v5.1v5v5v5L291.7,205.3z"/>
<path id="CA-BC" class="st0" d="M161.7,25.6h4.5h4.5h4.5h4.5h4.5h4.5h4.5h4.5v7.2v7.1v7v6.9v6.9v6.8v6.7v6.6v6.6v6.5v6.4v6.4v6.3
	v6.2v6.2v6.1l0.3,0.7l0.5,0.4l0.1,0.7l0.2,0.2l0.7,0.1l0.7,1l-0.1,0.3h-1.3h-0.3v0.2l0.2,0.6v0.8l0.4,0.1l0.3,0.3l0.9,1.4l0.4,0.5
	l0.3,0.1l0.5-0.1l1.5,0.2l0.3,0.1l0.9,1.7l0.4,0.5l2,1l0.2,0.1l0.1-1l0.2-0.5l0.7,0.4l1,0.9l0.3,0.5l0.1,0.9l0.3,0.1l0.5,0.5
	l0.1,0.8l0.4,1l0.2,0.2l1,0.1l0.2,0.2l0.5,0.7l0.1,0.8l0.5,0.7l0.3,0.5l0.1,0.5l-0.3,0.8l0.6,0.9l0.2,0.7l0.4,0.5l-0.2,0.6v0.5
	l0.2,0.3h0.3l1.2-0.4l0.1-0.2l0.1-0.6l0.3-0.3l1.1,0.9l1.2,0.5l0.2,0.2v0.5l-0.8,1.2l0.3,0.6l0.3,0.4l1.5,1h1.9l0.3-0.2l0.3,0.1
	l0.7,1.7l1.6,1.8l0.4,0.6l0.9,2.3l0.2,0.3h0.8l0.1-0.1l0.1-0.5l0.2-0.3l0.3-0.3l0.4-0.2l0.4,0.1l0.4,0.5l0.6,1.6l0.6,0.5l0.4,0.6
	l0.4,0.5l0.3,0.7l0.6,0.7l0.3,1.5l0.3,0.4l0.7,0.4l0.4,0.5l0.8,0.4l0.1,0.1l0.1,0.2l0.2,1l0.1,0.3l0.5,0.4l1.4,0.5l1.6,1.6l0.2,0.4
	l0.1,0.4l-0.5,0.6l0.1,0.2l1.9,1.5l0.3,0.4l0.1,0.1h0.1h0.1h0.1l0.1,0.1l0.2,0.3l0.1,0.3l-0.1,0.3v0.2l0.1,0.1l0.4,0.6l0.4,0.5
	l0.1,0.1l0.2-0.1l0.6-0.4h0.3l0.4,0.1l0.5,0.5l1.9,2.7l0.7,3.4l0.5,1l0.1,0.6v0.5l-0.3,0.4l-0.1,0.3l0.4,2l-0.1,1l-0.4,1.3l-0.5,0.6
	v0.2l0.2,0.3l0.3,0.2l0.7,0.1l0.2,0.1v0.4l-0.1,1v0.5l0.2,0.4l0.8,0.9l0.5,0.8l0.4,0.3l0.1,0.3l0.2,0.3l1.5,0.6l0.2,0.3l0.3,0.8
	l0.7,0.8l0.1,0.3l0.3,1.2h-0.9h-4h-4h-4h-4h-1.7h-2.3h-4h-3h-1h-4h-4h-4h-4h-4h-4h-4h-4h-4h-4h-4h-4h-4h-1l-0.8-1.4l-0.9-0.7h-0.4
	l-0.4,0.2l-0.2,0.3l-0.2,0.6H168l-0.3-0.9l0.1-0.4l0.3-0.5v-0.2l-0.7,0.1l-0.3-0.1L167,202l0.1-1l-0.4-0.6l0.4-0.3l1.1-0.2h1.1
	l0.3-0.4l0.3-1.1l-0.8,1l-0.5,0.1l-1.5-0.4l-1,0.1L166,199v-0.2l0.2-0.2l0.2-0.8l0.2-2.1l0.3-0.8l0.1-0.4l-0.1-0.1l-1.3,1.5
	l-0.1,0.5l0.1,0.4l-0.1,0.8l-0.6,0.3l-0.4-0.1l-0.7,0.7l-0.2,0.1l-3.1-1.2l-0.3-0.2l-0.5-0.6l-0.8-1l-0.2-0.8l0.3-0.7l0.3-0.4h0.3
	l0.3,0.3l0.7,1.2l0.3,0.7l0.7-0.1l1.2-0.9l0.3-0.3l-1.2,0.4h-0.5l-0.5-0.4l-0.5-0.7l-0.3-0.8v-2.7l0.2-0.5l0.6-0.4l0.4-0.6v-0.3
	l-0.4-0.5l-0.5-0.4l-0.5-0.2l-0.1,0.1l0.8,1.2v0.4l-0.9,1.2l-0.1,0.3v1.1l-0.1,0.2l-0.7,0.3l-0.8,0.9l-1.3,0.3l-1.2-0.1l-0.7-0.4
	l-2.1-2.2l-0.8-0.9v-0.8l-1.4-2.7v-0.6L150,185l-0.5-0.1l-0.1-0.8l1.1-1.7l0.7-1.5l0.1-0.5v-0.7l-0.2-1.6l0.1-0.7l0.1,0.6l-0.1,0.7
	l0.2,0.7l-0.1,0.8l-0.4,1.1l-0.7,1.2l-1.4,0.6l-2.5-0.3l-0.3-0.1l-0.2-0.4l-0.1-1.7l-0.2,0.2l-0.3,0.9L145,183l-0.3,0.3h-0.5
	l-0.4-0.2l-0.3-0.4h-0.6l-1.2,0.3l-0.6-0.1h-0.7l-1.3-0.4l-1.6-0.1l-0.4-0.3v-0.6l0.3-0.3l1.7-0.3l1.6-0.6l1.6-0.3l-0.1-0.3
	l-0.7-0.1l-3.7,0.7l-1.2-0.1l-0.2-0.1v-0.7l0.4-0.6l0.7-0.6l0.2-0.4l-0.4-0.2l-0.7,0.1l-0.3-0.4l0.3-1.4l-0.3-1.4l-0.4,1.4l-0.6,0.7
	l-3.1,0.3l-0.5,0.4h-0.4l-2-0.7l-0.8-0.4l-0.8-0.6l-1.4-1.5l-1.1-1l-0.1-1.8l0.2-1.1l0.5-1.3l2-2.7l0.7-0.5l0.6-0.2l2.9-0.2l2.2-0.3
	l0.4-0.2l-3.2-0.2l-2.9,0.1l-1,0.4l-1.2,1.7l-0.3,0.7l-0.3,0.5h-0.2l-0.4-0.2l-0.1-0.2l-0.2-0.6l-0.7-0.9l-0.3-1l-0.2-1.5l0.1-0.7
	l0.3-0.9l1-1.7h-1.2l0.1-1.5l0.4-1.6l1.1-0.9l1.2-0.7l1-0.9l1.8-0.6l0.6,1.2l1.6,0.4l0.5,0.6l0.6,1l0.7,1l0.8,0.9l0.2,0.1l-0.4-0.8
	l-1.3-1.7l-0.1-0.6l-0.3-0.7l-1.8-1l-0.3-0.4l-0.3-1l-0.1-0.6l0.2-0.6l1.8-1.9l0.4-1v-0.5l-0.1-0.5l-0.4-0.9h-0.1l0.1,1.4l-0.1,0.5
	l-0.2,0.6l-0.3,0.4l-0.4,0.3l-3.9,4.2l-0.4,0.3l-1.4,0.4l-0.7,0.4l-0.4,0.6l-0.6,1.5l-0.9,3l-1,2.5l-0.9-3.2l-1.5-2.4l3-2.4l0.1-0.4
	l-0.3-1.3l0.1-0.4l0.3-0.6l0.8-0.8v-0.1l-0.9,0.3l-1.4,1.9l-0.5,0.6l-0.3,0.1v-1.1l0.7-2.9l0.6-2.8l0.2-0.8l0.5-0.8l-0.5,0.1
	l-2.4,1.3l-0.8-0.8l-0.7-4.1l-1.2-1.6l-2-1.3l-2-0.6l-0.5-1.2l-0.4-1.4l0.5-1.7l0.9-0.8l0.8-0.4l0.8,0.2v0.6l-0.5,1.7l0.7,0.2l2.7,2
	l0.6,0.2l1.1-0.8h0.6l1.5,0.6l0.5,0.8l1.4,1.5l-0.2-0.9l-1.5-1.8l-0.9-0.6l-1.5-0.1l-0.9,0.3l-0.4-0.1l-0.8-0.5l-0.7-0.8l-0.7-1.7
	l-0.2-0.8V133l0.2-0.5l0.3-0.5l0.6-0.3l0.9-0.2l0.3-0.2l-1.1-1h-0.5l-1.7,1.4l-0.4,0.1l-0.2-0.3h-0.1l-0.5,0.7l-0.4,0.3l-1.4,2.2
	l-0.2,1l-0.1,1.5l-0.2,1l-0.3,0.4l-1.7,0.7l-1,1.5l-1.2-1.3l-1.3-1.2l-0.8-2.2l-1.5-0.4l-1.8-1.2l-0.7-1.1l1-2.3l1.4-1.7l0.2-2.1
	l0.2-0.4l2.4-0.5l1.5-1l-1.6-0.1l-1,0.2l-1.7,0.7l-1.9-1.4l-1-1.3l-0.3-1.1l0.3-0.9v-1l0.2-1.3l0.2-0.6l0.4-0.7l0.8-0.5l0.7-1.5
	l0.3-1l1.5-3.2l0.5-1.4l1-1.9l2.1-3l-0.6,0.2l-0.3,0.3h-0.3l-0.3-0.3l-0.3-0.7l-0.3-1l-0.2,0.5v1.9l-0.2,1.6l-0.4,1.1l-1,2.3
	l-0.6,0.9l-0.4-0.8l0.3-1.4l0.5-1.2V108l-0.3-2l-0.4-1.6l-0.2-1.1l0.1-1.5l0.2-1l0.4-1l0.2-0.4l0.3-0.5l0.1-1l-0.1-1.1l-0.3-0.8
	l-0.4-0.8l-1.1,0.5l-1.9-0.7l-0.6-1.8l-1.6-0.6L97,91.3l-1.6-0.6l-1.6-0.5l-1.4-1l-0.7-0.5l-1.8-1.3l-0.7-0.5L88.3,87l-1.4,0.1
	l-0.1-1.6l-0.5-1l0.2-0.9l-1.1-0.5l-1.2-0.6l0.4-1.6l0.3-1.3l-1.4-0.4L82,78.7l0.5-1l0.5-1l-0.6-1.4l-1.1-2l-1.2-1.9l-1.5-2.8
	L77.3,66l-0.7-1.5l-0.8-1.3l-1.1-2.3l-1.5-2.6l-1.4-2L72,55l-1.4-1.7l-1.4-1.9L68,49.7l-1.5-1.1l-1-0.7l-1.2-0.8l-0.8-0.9l-0.3-0.8
	l-0.3-0.5l-0.3-0.7l-0.2-0.9l-0.3-0.5l-1.7-1.3l-0.5-0.8l-1.2-0.9l-1-0.4l-0.3-0.3l-1.2-2.8l0.2-1.1l0.1-0.9l-0.1-0.5l-2-2.2l-1-0.9
	l-1-0.9L50.3,31L48,32.3l-1.5,0.5l-2.1,0.6l0.7,1.3l-0.3,1l-0.7,0.4L43,36v3.3l-1,2.3h-2.2l-1.1,0.7l-1.8,1.2l-1.5,1L33.9,46
	l-0.8-0.2l0.4-1.4l-0.6-2.6l-0.4-1.7l-9.8-10.2L22,27.6l-1.7-0.9l-1.4-0.8l-0.4-0.5h9.3h8.9h8.9h8.9h8.9h8.9h8.9h8.9H99h8.9h8.9h8.9
	h8.9h8.9h8.9L161.7,25.6L161.7,25.6z M95,121.3h-0.2l-0.1-0.3l0.1-0.7l0.3-1.2l0.1-0.3l1.2,0.2l0.2,0.1v0.2l-0.1,0.4l-0.4,0.5
	L95,121.3z M78.8,127l0.9,0.9l2.1-0.6l0.4,0.1l0.4,0.4l0.4,0.8l0.5,1.2l0.1,1.3l-0.2,0.5l-0.4,0.5l-3.3,2l-0.1,0.2l0.1,0.2l0.3,0.2
	h0.7l2.6-0.5l0.1-0.3l0.2-1.6l0.4-0.8v-0.6l-0.2-1.5v-0.6l1.8-0.1l1.1-0.6l1.2-1h0.3L88,129l-0.2,0.6l-1.1,2.3l-0.6,2l-0.3,2
	l-0.1,3.3l-0.3,1.1l-0.5,0.7l-3.1,1.2l-1.6-0.1l-1.4-1.1l-0.7-0.7l0.5-0.9H79l1,0.2l0.8,0.3h0.3l-0.1-0.2l-2.2-1.7l-1.6-0.8
	l-0.5-0.9v-0.7l-0.1-0.4l-1.3-2.4l-0.3-0.9l-0.2-1.3v-1.4l0.3-2.2l0.1-0.2h0.5l0.9,0.3L78.8,127L78.8,127z M101.5,129.7l-0.3,0.6
	l-0.7,0.9l-0.4,0.4l-0.2-0.2l-0.6-0.1l-0.6-0.9l-0.5-0.4h-0.3l-0.2,0.3v0.4l0.1,0.5l-0.1,0.2l-0.2-0.1l-0.2-0.3l-0.2-0.5V130
	l0.1-0.5l0.5-0.6l1.4-1.3l0.4-0.2l0.5,0.1l0.8,0.6l0.2,0.2L101.5,129.7L101.5,129.7z M105.1,142.1l-0.2,0.1l-0.6-0.2l-2-2.6l-1.4-1
	l-1-1.3l-1-0.8l0.6-1.4l0.5,0.2l1.9,1.1l1.5,1.1l0.8,0.7l1.8,3l-0.1,0.4L105.1,142.1L105.1,142.1z M111.5,142.9l-0.1,0.1h-1
	l-0.3-0.2l-0.2-0.3l-0.1-0.5l0.2-0.6l0.6-1.1v-0.5l0.1-0.2l0.4,0.6l0.2,0.5L111.5,142.9z M117.3,145.7l0.4,4.9v1.6l-0.6,1l-0.4,1.7
	l-0.5,0.8l-0.5-1V153l-0.1-1.4l-0.2-0.6l0.2-2.5l-0.2,0.2l-0.6,1.1l-0.6,0.1l-1.2-1.3l-0.6-1l-0.1-1.1l-0.8-1.1l-0.1-0.4l0.1-0.4
	l0.6-1.1l0.3-0.8l0.2-1.6l0.3-0.6l0.6,0.1l1.1,0.7l1.1,0.8l1,1L117.3,145.7L117.3,145.7z M87.2,141.7l1,1.4l0.3,1.3l-0.1,1.5
	l-1.5,0.6l-0.8-0.5l-0.3,0.1l-0.5,0.5l0.6,0.2l0.9,0.7l0.8,1l1.1,0.2l1.5,0.7l-1.1,1.2l-0.2,0.7l1.4,1.9l0.1,0.5l0.4,0.1l1-0.2
	l0.1,0.2v0.4l-0.6,1.1l0.1,0.2l0.6,0.2h1.1l0.3,1.1l-1,1l-1.9-1.3l-0.8-1.3l-0.5-1.2l-0.6-0.7l-1.7-1.5l-2.6-3.3l-0.7-0.5l-0.7-1.3
	l-0.2-0.6v-0.4l0.3-0.2l0.8-0.1v-0.6l-3-1.1l-0.3-0.2l-0.4-0.8l0.2-0.1l1.7,0.1l1.8-0.4l1.1-0.3l0.4-0.4l0.9-0.5h0.4L87.2,141.7
	L87.2,141.7z M110.1,144.8l-0.1,0.1l-0.4-0.2l-0.4-0.4l-0.6-1.2l-0.2-0.5l-0.1-0.8l0.1-0.1l0.3,0.1l0.2,0.1l1,1.9
	C109.9,143.9,110.1,144.8,110.1,144.8z M113.7,152.3l-0.3,0.7l-1.3-1.7l-0.5-0.5l-0.9-1.8l-0.2-0.8v-0.4l0.2-0.2l0.3,0.1l0.3,0.2
	l1.8,2l0.5,0.9C113.6,150.9,113.7,152.3,113.7,152.3z M119,154l-0.7,0.2l0.2-0.8l0.1-0.5l-0.1-0.5l-0.1-0.9v-2.1l0.7-1.3h1.1v0.7
	l-0.5,3l-0.2,1.4l-0.2,0.5L119,154L119,154z M94,160.7h-0.2l-0.3-0.3l-0.2-0.5l-0.1-1.3l0.1-0.5l0.1-0.2l0.8,0.8L94,160.7L94,160.7z
	 M123.2,168l-0.2,0.3h-0.4L122,168l-0.4-0.6l-0.5-1.7l0.1-0.3l0.2-0.3l0.9-0.6l0.3,0.1l0.1,0.5l0.5,1l0.1,0.3v1.2L123.2,168
	L123.2,168z M130,180.5l4.7,1.8l4.7,0.9l3.4,1.1l2.1,0.3l0.8,0.2l0.5,0.4l0.6,0.9l1,2.2l0.8,1.4l1.6,2.4l1.2,1.7l0.3,0.7l-0.3,0.2
	v0.4l0.9,1.6l1.8,1.5l1.4,0.7l2.9,1.1l1.8,1.1l0.6,0.8l0.8,0.7l0.3,0.5l0.6,1.9l1.2,1.8l1.2,3.4l0.2-0.3l0.1-1l0.1-0.2l0.3-0.1
	l0.2,0.4l0.2,0.9l0.8,2.1l-0.3,0.6l-0.2,0.1l-1-0.3l-0.4,0.4l-0.5,0.8l-0.3,0.3l-0.2-0.1l-3-0.7l-1.9-0.7l-2.4-1.1l-2.9-1.2
	l-1.7-0.8l-1.4-0.8l-1-0.7l-0.2-0.6v-0.3l1.9-1.9l0.8-1l0.3-0.8l0.2-0.8l-0.1-1l-0.1,0.1l-0.2,1l-0.3,0.9l-0.3,0.7l-0.2,0.2
	l-2.3,0.3l-1.8-0.1l-0.9,0.8l-0.3,0.1l-0.5-0.3l-1.1-1.1l-1.6-0.9l0.2-0.2l1-0.5l0.5-0.7l-0.1-0.1h-0.4l-0.3-0.1l-0.6-0.9l-0.4-0.2
	l-0.8,0.4h-0.3l-0.3-0.6l0.4-1.3v-0.3l-0.8,0.5l-0.3-0.2l-0.3-0.4l-0.2-0.2l-0.6,0.1l-0.7-0.4l-0.2,0.2l-0.1,0.6l-0.2,0.1l-1.1-1
	h-0.2l-0.5,0.7h-0.2l-0.3-0.3l-0.1-1.8l0.1-0.5l0.1-0.2l0.9-0.4l2.7-0.5l0.2-0.3l-2,0.2l-0.5-0.2l-0.6-0.6h-0.6l-0.3-0.2l-0.3-0.4
	l-0.8-1.6l-0.6-0.4l-1-0.3l-0.5-0.3l-0.2,0.1l-0.2,0.5l-0.3,0.3l-0.7,0.2l-0.6-0.1l-0.5-0.5l-0.3-0.6l-0.1-0.6l0.3-0.8V189l-0.1-0.4
	l-0.2-0.3l-0.3-0.2l-0.3-0.1v0.5l-0.2,0.4l-0.6,0.3l-0.4-0.5l-0.3-0.7l-0.3-0.5h-1.9l-0.9,0.6l-0.4,0.1l-0.4-0.1l-0.1-0.3l0.4-0.9
	l-0.1-1.2l-0.1-0.3l-0.9-0.2l-0.2-0.3l0.5-1.5l0.3-0.3l0.4-0.1l1.8-0.1l0.6,0.2l0.9,0.9v-0.3l-0.3-1v-0.6l0.6-0.7l-0.6-0.2L125,181
	v0.4l0.2,0.6l-1.3,0.5l-0.9,0.1l-0.9-0.1l-0.7-0.3l-1.2-1.3l-0.8-1.3v-0.7l0.4-0.7l0.6-0.5l1.3-0.4h1.7l1.9,0.6L130,180.5L130,180.5
	z M148.9,188.4l-0.1,0.8l-0.6-1.2l-0.9-2.7l0.1-0.6l0.4-0.9l0.4-0.1l0.6,0.4l0.5,0.7l0.1,0.3l0.3,0.8l0.2,0.7l-0.4,0.8L148.9,188.4
	L148.9,188.4z M150.8,189.4l-0.2,0.1l-0.2-1.7l0.3-0.6l0.1-0.3v-0.3l0.5,0.7l0.2,0.5l0.1,0.7v0.2L150.8,189.4L150.8,189.4z
	 M135.2,195.5l-0.4,0.1l-0.6-0.2l-0.7-0.4l-1.2-1.1l-0.1-0.3l0.1-0.2l0.3-0.2l0.1-0.3l-0.3-0.8l0.9-0.5l0.8,0.4l0.4,0.5l0.4,0.9
	l0.2,1v0.7L135.2,195.5L135.2,195.5z M158.5,196.6l0.1,0.3l-2.1-1.1l-0.9-0.7l-0.3-0.5l-0.2-0.3l-1.1-0.7l-0.2-0.3l0.3-0.2l0.7,0.1
	l1.2,0.5l1.1,0.9L158.5,196.6L158.5,196.6z M140.4,199.2l0.3,1.3l-1.2-0.2l-0.4-0.3v-0.6l0.2-0.6l0.9,0.2L140.4,199.2L140.4,199.2z
	 M165.9,205.9l-0.1,0.2l-1.5-1l-1-1.3l-0.4-0.8l1.9,2l1,0.7L165.9,205.9L165.9,205.9z M165.3,207.7l-0.4,0.4l-0.2-0.1l-0.2-0.3
	l-0.6-2.5l0.3,0.1l0.8,0.8l-0.2,0.3l0.6,0.7l0.1,0.5L165.3,207.7z"/>
<text transform="matrix(1 0 0 1 230.4679 82.7236)" class="st1 st2 st3">CA-AB</text>
<text transform="matrix(1 0 0 1 128.7961 82.724)" class="st1 st2 st3">CA-BC</text>
<text transform="matrix(1 0 0 1 184.5105 230.7)" class="st1 st2 st3">US-WA</text>
<text transform="matrix(1 0 0 1 178.5003 274.254)" class="st1 st2 st3">US-OR</text>
<text transform="matrix(1 0 0 1 238.7408 283.1051)" class="st1 st2 st3">US-ID</text>
<text transform="matrix(1 0 0 1 278.0899 234.6672)" class="st1 st2 st3">US-MT</text>
<text transform="matrix(1 0 0 1 297.3871 289.8332)" class="st1 st2 st3">US-WY</text>
<text transform="matrix(1 0 0 1 322.0301 335.7004)" class="st1 st2 st3">US-CO</text>
<text transform="matrix(1 0 0 1 311.1364 390.6001)" class="st1 st2 st3">US-NM</text>
<text transform="matrix(1 0 0 1 262.796 391.9002)" class="st1 st2 st3">US-AZ</text>
<text transform="matrix(1 0 0 1 262.7956 335.7005)" class="st1 st2 st3">US-UT</text>
<text transform="matrix(1 0 0 1 211.44 335.7002)" class="st1 st2 st3">US-NV</text>
<text transform="matrix(1 0 0 1 164.7399 320.0413)" class="st1 st2 st3">US-CA</text>
<g>
	<polyline class="st4" points="216.5,153.3 217.9,152.5 219.2,153.5 220.5,153.1 221.9,152.7 223.2,153.4 224.5,152.9 225.8,153.7 
		227.2,153 228.5,153.7 229.8,154.1 231.1,153.8 232.4,154.1 233.8,154.2 235.2,153.2 236.5,153.3 237.7,154.9 239.1,154.6 
		240.5,153.9 241.8,154.1 243.1,154.4 244.5,154.3 245.7,155.3 246.9,156.1 248.3,156 249.6,156.3 251,155.9 252.4,155.9 253.5,157 
		254.8,157.4 256.2,157.2 257.6,157 258.6,158.4 259.9,158.9 261.5,157.9 262.7,158.7 263.9,159.2 265.4,159 266.7,159.3 
		267.8,160.3 269.2,160.1 270.2,161.6 271.5,161.8 273,161.6 274.1,162.4 275.6,162 276.8,162.5 277.9,163.4 279,164.2 280.4,164.3 
		281.5,165.2 283,164.9 284.2,165.3 285.1,166.8 286.8,166.1 287.5,167.9 288.9,167.9 289.9,168.8 291.6,168.2 292.6,169.2 	"/>
</g>
<g>
	<polyline class="st4" points="222.5,402.9 224.8,402.8 227.1,402.8 229.5,402.8 231.8,402.5 234.1,402.3 236.4,402.3 238.7,402.4 
		241.1,402.4 243.4,402.2 245.7,401.8 248,401.7 	"/>
</g>
</svg>
